# File created by Blade
# Date/Time:  Tue Jan 27 19:00:46 2015
#---------------------------------------------------------
:version 1.10
:name HOM
:units
  mass 1.0
  length 1.000000
  angle deg
:documentation
     Acclaim Skeleton File
:root
   axis xyz
   order TX TY TZ RX RY RZ
   position 0.000000 0.000000 0.000000
   orientation 0 0 0
:bonedata
   begin
      id 1
      name Spine_dum
      direction 0.000000 1.000000 0.000000
      length 5.195262
      axis 0.0 0.0 0.0 xyz
   end
   begin
      id 2
      name LeftUpLeg_dum
      direction 1.000000 0.000000 0.000000
      length 3.351363
      axis 0.0 0.0 0.0 xyz
   end
   begin
      id 3
      name RightUpLeg_dum
      direction -1.000000 0.000000 0.000000
      length 3.351363
      axis 0.0 0.0 0.0 xyz
   end
   begin
      id 4
      name Spine
      direction 0.000000 1.000000 0.000000
      length 0.000000
      axis 0.0 0.0 0.0 xyz
      dof rx ry rz
   end
   begin
      id 5
      name Spine_dum1
      direction 0.000000 1.000000 0.000000
      length 15.653875
      axis 0.0 0.0 0.0 xyz
   end
   begin
      id 6
      name Spine_dum2
      direction 0.000000 1.000000 0.000000
      length 10.329768
      axis 0.0 0.0 0.0 xyz
   end
   begin
      id 7
      name Spine_dum3
      direction 0.000000 1.000000 0.000000
      length 10.329768
      axis 0.0 0.0 0.0 xyz
   end
   begin
      id 8
      name Head
      direction 0.000000 1.000000 0.000000
      length 4.527550
      axis 0.0 0.0 0.0 xyz
      dof rx ry rz
   end
   begin
      id 9
      name LeftShoulder
      direction 1.000000 0.000000 0.000000
      length 6.996006
      axis 0.0 0.0 -90.0 xyz
      dof rx ry rz
   end
   begin
      id 10
      name LeftArm
      direction 1.000000 0.000000 0.000000
      length 10.209302
      axis 0.0 0.0 -90.0 xyz
      dof rx ry rz
   end
   begin
      id 11
      name LeftForeArm
      direction 1.000000 0.000000 0.000000
      length 8.563163
      axis 0.0 0.0 -90.0 xyz
      dof ry rz rx
   end
   begin
      id 12
      name LeftHand
      direction 0.000000 0.000000 0.000000
      length 0.000000
      axis 0.0 0.0 -90.0 xyz
      dof rx ry rz
   end
   begin
      id 13
      name LeftHand_dum1
      direction 0.000000 0.000000 0.000000
      length 0.000000
      axis 0.0 0.0 -90.0 xyz
   end
   begin
      id 14
      name LeftHand_dum2
      direction 1.000000 0.000000 0.000000
      length 3.937000
      axis 0.0 0.0 -90.0 xyz
   end
   begin
      id 15
      name LeftHandThumb1
      direction 0.000000 0.000000 1.000000
      length 3.937000
      axis 0.0 0.0 -90.0 xyz
      dof rx rz ry
   end
   begin
      id 16
      name RightShoulder
      direction -1.000000 0.000000 0.000000
      length 6.996006
      axis 0.0 0.0 90.0 xyz
      dof rx ry rz
   end
   begin
      id 17
      name RightArm
      direction -1.000000 0.000000 0.000000
      length 10.209302
      axis 0.0 0.0 90.0 xyz
      dof rx ry rz
   end
   begin
      id 18
      name RightForeArm
      direction -1.000000 0.000000 0.000000
      length 8.563163
      axis 0.0 0.0 90.0 xyz
      dof ry rz rx
   end
   begin
      id 19
      name RightHand
      direction 0.000000 0.000000 0.000000
      length 0.000000
      axis 0.0 0.0 90.0 xyz
      dof rx ry rz
   end
   begin
      id 20
      name RightHand_dum1
      direction 0.000000 0.000000 0.000000
      length 0.000000
      axis 0.0 0.0 90.0 xyz
   end
   begin
      id 21
      name RightHand_dum2
      direction -1.000000 0.000000 0.000000
      length 3.937000
      axis 0.0 0.0 90.0 xyz
   end
   begin
      id 22
      name RightHandThumb1
      direction 0.000000 0.000000 1.000000
      length 3.937000
      axis 0.0 0.0 90.0 xyz
      dof rx rz ry
   end
   begin
      id 23
      name LeftUpLeg
      direction 0.000000 -1.000000 0.000000
      length 16.346831
      axis 0.0 0.0 0.0 xyz
      dof rx ry rz
   end
   begin
      id 24
      name LeftLeg
      direction 0.000000 -1.000000 0.000000
      length 13.959795
      axis 0.0 0.0 0.0 xyz
      dof rx ry rz
   end
   begin
      id 25
      name LeftFoot
      direction 0.000000 -0.258819 0.965926
      length 5.165550
      axis 15.0 0.0 0.0 xyz
      dof rx ry rz
   end
   begin
      id 26
      name LeftToeBase
      direction 0.000000 0.000000 1.000000
      length 2.952750
      axis 0.0 0.0 0.0 xyz
      dof rx ry rz
   end
   begin
      id 27
      name RightUpLeg
      direction 0.000000 -1.000000 0.000000
      length 16.346831
      axis 0.0 0.0 0.0 xyz
      dof rx ry rz
   end
   begin
      id 28
      name RightLeg
      direction 0.000000 -1.000000 0.000000
      length 13.959795
      axis 0.0 0.0 0.0 xyz
      dof rx ry rz
   end
   begin
      id 29
      name RightFoot
      direction 0.000000 -0.258819 0.965926
      length 5.165550
      axis 15.0 0.0 0.0 xyz
      dof rx ry rz
   end
   begin
      id 30
      name RightToeBase
      direction 0.000000 0.000000 1.000000
      length 2.952750
      axis 0.0 0.0 0.0 xyz
      dof rx ry rz
   end
:hierarchy
   begin
      root Spine_dum LeftUpLeg_dum RightUpLeg_dum
      Spine_dum Spine
      LeftUpLeg_dum LeftUpLeg
      RightUpLeg_dum RightUpLeg
      Spine Spine_dum1 Spine_dum2 Spine_dum3
      Spine_dum1 Head
      Spine_dum2 LeftShoulder
      Spine_dum3 RightShoulder
      LeftShoulder LeftArm
      LeftArm LeftForeArm
      LeftForeArm LeftHand
      LeftHand LeftHand_dum1 LeftHand_dum2
      LeftHand_dum1 LeftHandThumb1
      RightShoulder RightArm
      RightArm RightForeArm
      RightForeArm RightHand
      RightHand RightHand_dum1 RightHand_dum2
      RightHand_dum1 RightHandThumb1
      LeftUpLeg LeftLeg
      LeftLeg LeftFoot
      LeftFoot LeftToeBase
      RightUpLeg RightLeg
      RightLeg RightFoot
      RightFoot RightToeBase
   end

# File created by Blade
# Date/Time:  Tue Jan 27 19:00:36 2015
# Frame Rate: 120.000 fps
#------------------------------------------------------
:FULLY-SPECIFIED
:DEGREES
533
root -2.329933 31.640189 -4.493268 5.412849 31.545952 0.673010
Spine -3.945637 -10.792415 -3.252165
Head 13.586771 0.038538 1.234354
LeftShoulder -16.192554 13.020950 14.360170
LeftArm 21.344599 -37.372259 -76.554800
LeftForeArm -10.337904 0.000000 72.507041
LeftHand -7.628021 -0.000000 22.327801
LeftHandThumb1 -26.253704 0.000000 33.147579
RightShoulder -13.323597 -4.645379 -10.725315
RightArm 3.768928 -30.801544 89.859886
RightForeArm -23.539830 -0.000000 20.439581
RightHand -14.862466 0.000000 10.353744
RightHandThumb1 -24.326973 -0.000000 -32.862282
LeftUpLeg -6.570361 -19.201312 -6.806447
LeftLeg 16.437166 -0.000000 -0.000000
LeftFoot -23.005679 17.051683 -14.579444
LeftToeBase 10.682930 -0.000000 -0.000000
RightUpLeg -30.257523 16.806081 -3.325761
RightLeg 103.591942 -0.000000 -0.000000
RightFoot -8.781251 -8.874087 16.064879
RightToeBase 1.367165 -0.000000 -0.000000
534
root -2.330437 31.640496 -4.490179 5.406223 31.543386 0.673679
Spine -3.936577 -10.805105 -3.283028
Head 13.594868 0.070812 1.320914
LeftShoulder -16.186390 13.057935 14.397264
LeftArm 21.329446 -37.458630 -76.523172
LeftForeArm -10.594710 0.000000 72.379116
LeftHand -7.437380 -0.000000 22.537548
LeftHandThumb1 -26.253704 0.000000 33.147579
RightShoulder -13.342727 -4.665475 -10.712534
RightArm 3.778911 -30.812775 89.878512
RightForeArm -23.556667 0.000000 20.392979
RightHand -14.827161 -0.000000 10.410632
RightHandThumb1 -24.326973 -0.000000 -32.862282
LeftUpLeg -6.535738 -19.331253 -6.803692
LeftLeg 16.399665 -0.000000 -0.000000
LeftFoot -23.066399 17.107965 -14.711017
LeftToeBase 10.681846 -0.000000 -0.000000
RightUpLeg -30.211718 16.801226 -3.330138
RightLeg 103.502103 -0.000000 -0.000000
RightFoot -8.588269 -9.048403 15.651698
RightToeBase 0.805145 -0.000000 -0.000000
535
root -2.332886 31.640788 -4.488603 5.404307 31.522712 0.668830
Spine -3.928424 -10.821403 -3.315503
Head 13.591135 0.103103 1.408636
LeftShoulder -16.173582 13.073705 14.437344
LeftArm 21.267682 -37.611507 -76.474146
LeftForeArm -10.611836 -0.000000 72.288398
LeftHand -7.458944 -0.000000 22.486326
LeftHandThumb1 -26.253704 0.000000 33.147579
RightShoulder -13.331240 -4.650035 -10.703544
RightArm 3.744583 -30.796865 89.919501
RightForeArm -23.593710 -0.000000 20.371555
RightHand -14.787814 -0.000000 10.448840
RightHandThumb1 -24.326973 -0.000000 -32.862282
LeftUpLeg -6.540709 -19.335780 -6.794151
LeftLeg 16.408142 -0.000000 -0.000000
LeftFoot -23.101593 17.111833 -14.779933
LeftToeBase 10.775850 -0.000000 -0.000000
RightUpLeg -30.190148 16.824390 -3.335457
RightLeg 103.417156 -0.000000 -0.000000
RightFoot -8.571979 -9.093996 15.620661
RightToeBase 0.986004 -0.000000 -0.000000
536
root -2.335532 31.640888 -4.485924 5.408000 31.500514 0.665540
Spine -3.930807 -10.823640 -3.354965
Head 13.611995 0.128885 1.504641
LeftShoulder -16.156156 13.067273 14.495009
LeftArm 21.181461 -37.738567 -76.421971
LeftForeArm -10.782518 -0.000000 72.207060
LeftHand -7.409880 -0.000000 22.382752
LeftHandThumb1 -26.253704 0.000000 33.147579
RightShoulder -13.330390 -4.640320 -10.687019
RightArm 3.699364 -30.788876 89.957064
RightForeArm -23.610812 -0.000000 20.375162
RightHand -14.768153 -0.000000 10.473429
RightHandThumb1 -24.326973 -0.000000 -32.862282
LeftUpLeg -6.555512 -19.337437 -6.782007
LeftLeg 16.433792 -0.000000 -0.000000
LeftFoot -23.160293 17.078045 -14.883427
LeftToeBase 10.810402 -0.000000 -0.000000
RightUpLeg -30.170311 16.833114 -3.336636
RightLeg 103.320933 -0.000000 -0.000000
RightFoot -8.501872 -9.199557 15.427625
RightToeBase 0.774123 -0.000000 -0.000000
537
root -2.338322 31.640906 -4.482539 5.411537 31.485023 0.665347
Spine -3.934537 -10.824853 -3.395583
Head 13.642688 0.146337 1.583935
LeftShoulder -16.120617 13.057569 14.543767
LeftArm 21.077834 -37.855773 -76.348748
LeftForeArm -10.907563 -0.000000 72.142039
LeftHand -7.327812 -0.000000 22.524291
LeftHandThumb1 -26.253704 0.000000 33.147579
RightShoulder -13.337098 -4.664858 -10.670473
RightArm 3.689896 -30.767016 89.980847
RightForeArm -23.635171 -0.000000 20.390209
RightHand -14.806287 -0.000000 10.489770
RightHandThumb1 -24.326973 -0.000000 -32.862282
LeftUpLeg -6.573348 -19.332328 -6.769676
LeftLeg 16.471301 -0.000000 -0.000000
LeftFoot -23.215306 17.028900 -14.985573
LeftToeBase 10.948091 -0.000000 -0.000000
RightUpLeg -30.151505 16.843072 -3.341583
RightLeg 103.226987 -0.000000 -0.000000
RightFoot -8.583508 -9.185659 15.604885
RightToeBase 1.041630 -0.000000 -0.000000
538
root -2.341292 31.639824 -4.477289 5.396293 31.466314 0.644102
Spine -3.929358 -10.836854 -3.418841
Head 13.675407 0.172129 1.652550
LeftShoulder -16.131388 13.083133 14.580364
LeftArm 21.028411 -37.965866 -76.327629
LeftForeArm -11.025297 -0.000000 72.097037
LeftHand -7.248638 -0.000000 22.694450
LeftHandThumb1 -26.253704 0.000000 33.147579
RightShoulder -13.332453 -4.679399 -10.660571
RightArm 3.668039 -30.759541 90.001190
RightForeArm -23.618398 -0.000000 20.422877
RightHand -14.812761 -0.000000 10.479043
RightHandThumb1 -24.326973 -0.000000 -32.862282
LeftUpLeg -6.593943 -19.208694 -6.739010
LeftLeg 16.533815 -0.000000 -0.000000
LeftFoot -23.251428 16.888458 -15.003924
LeftToeBase 11.016912 -0.000000 -0.000000
RightUpLeg -30.116477 16.852573 -3.318093
RightLeg 103.131930 -0.000000 -0.000000
RightFoot -8.621355 -9.233634 15.636714
RightToeBase 1.213306 -0.000000 -0.000000
